<svg xmlns="http://www.w3.org/2000/svg" xmlns:xlink="http://www.w3.org/1999/xlink" version="1.1" x="0px" y="0px" viewBox="0 0 64 80" enable-background="new 0 0 64 64" xml:space="preserve"><path d="M61.623,35.145l-4-10.554c-0.147-0.389-0.52-0.646-0.935-0.646H39.625v-4.325c0-0.552-0.448-1-1-1H35.75v-6.435  c0-0.079-0.027-0.148-0.045-0.222c0.02-0.152,0.016-0.308-0.039-0.461l-2.849-8.004c-0.142-0.398-0.519-0.665-0.942-0.665  s-0.8,0.266-0.942,0.665l-2.849,8.004c-0.055,0.154-0.059,0.31-0.039,0.461C28.027,12.038,28,12.107,28,12.186v6.435h-2.625  c-0.552,0-1,0.448-1,1v4.325H7.313c-0.416,0-0.788,0.257-0.935,0.646l-4,10.554c-0.117,0.307-0.075,0.652,0.112,0.923  c0.187,0.27,0.494,0.432,0.823,0.432h2v23.625c0,0.552,0.448,1,1,1h18.021h15.333h18.021c0.552,0,1-0.448,1-1V36.5h2  c0.329,0,0.636-0.162,0.823-0.432C61.697,35.797,61.739,35.452,61.623,35.145z M30,13.186h3.75v5.34H30V13.186z M31.875,6.815  l1.556,4.371h-3.111L31.875,6.815z M32,36.333l7.307,5.205H24.693L32,36.333z M26.375,20.621h11.25v4.322c0,0.001,0,0.001,0,0.002  s0,0.001,0,0.002v12.937l-5.045-3.593c-0.347-0.247-0.813-0.247-1.16,0l-5.045,3.593V20.621z M8.003,25.946h16.372V34.5H6.313H4.761  L8.003,25.946z M7.313,36.5h17.063v2.225c0,0.179,0.06,0.338,0.142,0.483l-2.184,1.556v-1.822c0-0.552-0.448-1-1-1h-4.406  c-0.552,0-1,0.448-1,1v3.998c0,0.552,0.448,1,1,1h4.406c0.323,0,0.598-0.164,0.781-0.402h1.219v15.587H7.313V36.5z M20.333,39.942  v1.998h-2.406v-1.998H20.333z M35.595,49.941v8.482H33v-8.482H35.595z M31,58.423h-2.333v-8.482H31V58.423z M37.595,59.125V48.941  c0-0.552-0.448-1-1-1h-8.928c-0.552,0-1,0.448-1,1v10.184h-1.333V43.538h13.333v15.587H37.595z M56.688,59.125H40.667V43.538h1.481  c0.183,0.238,0.457,0.402,0.78,0.402h4.406c0.552,0,1-0.448,1-1v-3.998c0-0.552-0.448-1-1-1h-4.406c-0.552,0-1,0.448-1,1v2.007  l-2.445-1.741c0.083-0.146,0.142-0.305,0.142-0.483V36.5h0.207h16.856V59.125z M43.928,41.94v-1.998h2.406v1.998H43.928z   M57.688,34.5H39.832h-0.207v-8.554h16.372l3.242,8.554H57.688z"/><path d="M32,32.477c2.507,0,4.546-2.04,4.546-4.546s-2.04-4.546-4.546-4.546s-4.546,2.04-4.546,4.546S29.493,32.477,32,32.477z   M34.546,27.93c0,0.329-0.068,0.641-0.182,0.93l-1.763-1.411v-1.948c0-0.015-0.008-0.027-0.008-0.041  C33.711,25.729,34.546,26.731,34.546,27.93z M30.602,25.806v2.124c0,0.304,0.138,0.591,0.375,0.781l1.973,1.578  c-0.294,0.119-0.614,0.188-0.95,0.188c-1.404,0-2.546-1.142-2.546-2.546C29.454,27.042,29.911,26.262,30.602,25.806z"/><path d="M13.333,44.942H8.928c-0.552,0-1,0.448-1,1v3.998c0,0.552,0.448,1,1,1h4.406c0.552,0,1-0.448,1-1v-3.998  C14.333,45.39,13.886,44.942,13.333,44.942z M12.333,48.94H9.928v-1.998h2.406V48.94z"/><path d="M21.333,44.942h-4.406c-0.552,0-1,0.448-1,1v3.998c0,0.552,0.448,1,1,1h4.406c0.552,0,1-0.448,1-1v-3.998  C22.333,45.39,21.886,44.942,21.333,44.942z M20.333,48.94h-2.406v-1.998h2.406V48.94z"/><path d="M13.333,37.942H8.928c-0.552,0-1,0.448-1,1v3.998c0,0.552,0.448,1,1,1h4.406c0.552,0,1-0.448,1-1v-3.998  C14.333,38.39,13.886,37.942,13.333,37.942z M12.333,41.94H9.928v-1.998h2.406V41.94z"/><path d="M21.333,51.942h-4.406c-0.552,0-1,0.448-1,1v3.998c0,0.552,0.448,1,1,1h4.406c0.552,0,1-0.448,1-1v-3.998  C22.333,52.39,21.886,51.942,21.333,51.942z M20.333,55.94h-2.406v-1.998h2.406V55.94z"/><path d="M13.333,51.942H8.928c-0.552,0-1,0.448-1,1v3.998c0,0.552,0.448,1,1,1h4.406c0.552,0,1-0.448,1-1v-3.998  C14.333,52.39,13.886,51.942,13.333,51.942z M12.333,55.94H9.928v-1.998h2.406V55.94z"/><path d="M47.333,44.942h-4.406c-0.552,0-1,0.448-1,1v3.998c0,0.552,0.448,1,1,1h4.406c0.552,0,1-0.448,1-1v-3.998  C48.333,45.39,47.886,44.942,47.333,44.942z M46.333,48.94h-2.406v-1.998h2.406V48.94z"/><path d="M50.928,50.94h4.406c0.552,0,1-0.448,1-1v-3.998c0-0.552-0.448-1-1-1h-4.406c-0.552,0-1,0.448-1,1v3.998  C49.928,50.492,50.375,50.94,50.928,50.94z M51.928,46.942h2.406v1.998h-2.406V46.942z"/><path d="M50.928,43.94h4.406c0.552,0,1-0.448,1-1v-3.998c0-0.552-0.448-1-1-1h-4.406c-0.552,0-1,0.448-1,1v3.998  C49.928,43.492,50.375,43.94,50.928,43.94z M51.928,39.942h2.406v1.998h-2.406V39.942z"/><path d="M50.928,57.94h4.406c0.552,0,1-0.448,1-1v-3.998c0-0.552-0.448-1-1-1h-4.406c-0.552,0-1,0.448-1,1v3.998  C49.928,57.492,50.375,57.94,50.928,57.94z M51.928,53.942h2.406v1.998h-2.406V53.942z"/><path d="M47.333,51.942h-4.406c-0.552,0-1,0.448-1,1v3.998c0,0.552,0.448,1,1,1h4.406c0.552,0,1-0.448,1-1v-3.998  C48.333,52.39,47.886,51.942,47.333,51.942z M46.333,55.94h-2.406v-1.998h2.406V55.94z"/><text x="0" y="79" fill="#000000" font-size="5px" font-weight="bold" font-family="'Helvetica Neue', Helvetica, Arial-Unicode, Arial, Sans-serif"></text><text x="0" y="84" fill="#000000" font-size="5px" font-weight="bold" font-family="'Helvetica Neue', Helvetica, Arial-Unicode, Arial, Sans-serif"></text></svg>